<svg width="196" height="40" viewBox="0 0 196 40" fill="none" xmlns="http://www.w3.org/2000/svg">
<rect width="196" height="40" fill="#5D5A5A"/>
<g clip-path="url(#clip0_342_52)">
<rect width="1440" height="1024" transform="translate(-120 -100)" fill="#323334"/>
<path d="M2.02273 31.5V8.22727H17.4318V12.2841H6.94318V17.8295H16.4091V21.8864H6.94318V31.5H2.02273ZM65.0511 31.7841C63.7254 31.7841 62.5246 31.4432 61.4489 30.7614C60.3807 30.072 59.5322 29.0606 58.9034 27.7273C58.2822 26.3864 57.9716 24.7424 57.9716 22.7955C57.9716 20.7955 58.2936 19.1326 58.9375 17.8068C59.5814 16.4735 60.4375 15.4773 61.5057 14.8182C62.5814 14.1515 63.7595 13.8182 65.0398 13.8182C66.017 13.8182 66.8314 13.9848 67.483 14.3182C68.142 14.6439 68.6723 15.053 69.0739 15.5455C69.483 16.0303 69.7936 16.5076 70.0057 16.9773H70.1534V8.22727H74.983V31.5H70.2102V28.7045H70.0057C69.7784 29.1894 69.4564 29.6705 69.0398 30.1477C68.6307 30.6174 68.0966 31.0076 67.4375 31.3182C66.786 31.6288 65.9905 31.7841 65.0511 31.7841ZM66.5852 27.9318C67.3655 27.9318 68.0246 27.7197 68.5625 27.2955C69.108 26.8636 69.5246 26.2614 69.8125 25.4886C70.108 24.7159 70.2557 23.8106 70.2557 22.7727C70.2557 21.7348 70.1117 20.8333 69.8239 20.0682C69.536 19.303 69.1193 18.7121 68.5739 18.2955C68.0284 17.8788 67.3655 17.6705 66.5852 17.6705C65.7898 17.6705 65.1193 17.8864 64.5739 18.3182C64.0284 18.75 63.6155 19.3485 63.3352 20.1136C63.0549 20.8788 62.9148 21.7652 62.9148 22.7727C62.9148 23.7879 63.0549 24.6856 63.3352 25.4659C63.6231 26.2386 64.036 26.8447 64.5739 27.2841C65.1193 27.7159 65.7898 27.9318 66.5852 27.9318ZM81.9517 38.0455C81.3381 38.0455 80.7623 37.9962 80.2244 37.8977C79.6941 37.8068 79.2547 37.6894 78.9062 37.5455L79.9972 33.9318C80.5653 34.1061 81.0767 34.2008 81.5312 34.2159C81.9934 34.2311 82.3911 34.125 82.7244 33.8977C83.0653 33.6705 83.3419 33.2841 83.554 32.7386L83.8381 32L77.5767 14.0455H82.6676L86.2812 26.8636H86.4631L90.1108 14.0455H95.2358L88.4517 33.3864C88.1259 34.3258 87.6828 35.1439 87.1222 35.8409C86.5691 36.5455 85.8684 37.0871 85.0199 37.4659C84.1714 37.8523 83.1487 38.0455 81.9517 38.0455ZM104.96 31.5V28.5795L116.574 12.2841H104.938V8.22727H122.756V11.1477L111.131 27.4432H122.778V31.5H104.96ZM150.929 21.4091V31.5H146.088V14.0455H150.702V17.125H150.906C151.293 16.1098 151.94 15.3068 152.849 14.7159C153.759 14.1174 154.861 13.8182 156.156 13.8182C157.368 13.8182 158.425 14.0833 159.327 14.6136C160.228 15.1439 160.929 15.9015 161.429 16.8864C161.929 17.8636 162.179 19.0303 162.179 20.3864V31.5H157.338V21.25C157.346 20.1818 157.073 19.3485 156.52 18.75C155.967 18.1439 155.205 17.8409 154.236 17.8409C153.584 17.8409 153.009 17.9811 152.509 18.2614C152.016 18.5417 151.63 18.9508 151.349 19.4886C151.077 20.0189 150.937 20.6591 150.929 21.4091ZM173.949 31.8409C172.153 31.8409 170.608 31.4773 169.312 30.75C168.025 30.0152 167.032 28.9773 166.335 27.6364C165.638 26.2879 165.29 24.6932 165.29 22.8523C165.29 21.0568 165.638 19.4811 166.335 18.125C167.032 16.7689 168.013 15.7121 169.278 14.9545C170.551 14.197 172.044 13.8182 173.756 13.8182C174.907 13.8182 175.979 14.0038 176.972 14.375C177.972 14.7386 178.843 15.2879 179.585 16.0227C180.335 16.7576 180.919 17.6818 181.335 18.7955C181.752 19.9015 181.96 21.197 181.96 22.6818V24.0114H167.222V21.0114H177.403C177.403 20.3144 177.252 19.697 176.949 19.1591C176.646 18.6212 176.225 18.2008 175.688 17.8977C175.157 17.5871 174.54 17.4318 173.835 17.4318C173.1 17.4318 172.449 17.6023 171.881 17.9432C171.32 18.2765 170.881 18.7273 170.562 19.2955C170.244 19.8561 170.081 20.4811 170.074 21.1705V24.0227C170.074 24.8864 170.233 25.6326 170.551 26.2614C170.877 26.8902 171.335 27.375 171.926 27.7159C172.517 28.0568 173.218 28.2273 174.028 28.2273C174.566 28.2273 175.059 28.1515 175.506 28C175.953 27.8485 176.335 27.6212 176.653 27.3182C176.972 27.0152 177.214 26.6439 177.381 26.2045L181.858 26.5C181.631 27.5758 181.165 28.5152 180.46 29.3182C179.763 30.1136 178.862 30.7348 177.756 31.1818C176.657 31.6212 175.388 31.8409 173.949 31.8409Z" fill="white"/>
<path d="M27.2557 31.8409C25.4905 31.8409 23.964 31.4659 22.6761 30.7159C21.3958 29.9583 20.4072 28.9053 19.7102 27.5568C19.0133 26.2008 18.6648 24.6288 18.6648 22.8409C18.6648 21.0379 19.0133 19.4621 19.7102 18.1136C20.4072 16.7576 21.3958 15.7045 22.6761 14.9545C23.964 14.197 25.4905 13.8182 27.2557 13.8182C29.0208 13.8182 30.5436 14.197 31.8239 14.9545C33.1117 15.7045 34.1042 16.7576 34.8011 18.1136C35.4981 19.4621 35.8466 21.0379 35.8466 22.8409C35.8466 24.6288 35.4981 26.2008 34.8011 27.5568C34.1042 28.9053 33.1117 29.9583 31.8239 30.7159C30.5436 31.4659 29.0208 31.8409 27.2557 31.8409ZM27.2784 28.0909C28.0814 28.0909 28.7519 27.8636 29.2898 27.4091C29.8277 26.947 30.233 26.3182 30.5057 25.5227C30.786 24.7273 30.9261 23.822 30.9261 22.8068C30.9261 21.7917 30.786 20.8864 30.5057 20.0909C30.233 19.2955 29.8277 18.6667 29.2898 18.2045C28.7519 17.7424 28.0814 17.5114 27.2784 17.5114C26.4678 17.5114 25.786 17.7424 25.233 18.2045C24.6875 18.6667 24.2746 19.2955 23.9943 20.0909C23.7216 20.8864 23.5852 21.7917 23.5852 22.8068C23.5852 23.822 23.7216 24.7273 23.9943 25.5227C24.2746 26.3182 24.6875 26.947 25.233 27.4091C25.786 27.8636 26.4678 28.0909 27.2784 28.0909ZM46.8807 31.8409C45.1155 31.8409 43.589 31.4659 42.3011 30.7159C41.0208 29.9583 40.0322 28.9053 39.3352 27.5568C38.6383 26.2008 38.2898 24.6288 38.2898 22.8409C38.2898 21.0379 38.6383 19.4621 39.3352 18.1136C40.0322 16.7576 41.0208 15.7045 42.3011 14.9545C43.589 14.197 45.1155 13.8182 46.8807 13.8182C48.6458 13.8182 50.1686 14.197 51.4489 14.9545C52.7367 15.7045 53.7292 16.7576 54.4261 18.1136C55.1231 19.4621 55.4716 21.0379 55.4716 22.8409C55.4716 24.6288 55.1231 26.2008 54.4261 27.5568C53.7292 28.9053 52.7367 29.9583 51.4489 30.7159C50.1686 31.4659 48.6458 31.8409 46.8807 31.8409ZM46.9034 28.0909C47.7064 28.0909 48.3769 27.8636 48.9148 27.4091C49.4527 26.947 49.858 26.3182 50.1307 25.5227C50.411 24.7273 50.5511 23.822 50.5511 22.8068C50.5511 21.7917 50.411 20.8864 50.1307 20.0909C49.858 19.2955 49.4527 18.6667 48.9148 18.2045C48.3769 17.7424 47.7064 17.5114 46.9034 17.5114C46.0928 17.5114 45.411 17.7424 44.858 18.2045C44.3125 18.6667 43.8996 19.2955 43.6193 20.0909C43.3466 20.8864 43.2102 21.7917 43.2102 22.8068C43.2102 23.822 43.3466 24.7273 43.6193 25.5227C43.8996 26.3182 44.3125 26.947 44.858 27.4091C45.411 27.8636 46.0928 28.0909 46.9034 28.0909Z" fill="#FF0A0A"/>
<path d="M134.349 31.8409C132.584 31.8409 131.058 31.4659 129.77 30.7159C128.49 29.9583 127.501 28.9053 126.804 27.5568C126.107 26.2008 125.759 24.6288 125.759 22.8409C125.759 21.0379 126.107 19.4621 126.804 18.1136C127.501 16.7576 128.49 15.7045 129.77 14.9545C131.058 14.197 132.584 13.8182 134.349 13.8182C136.115 13.8182 137.637 14.197 138.918 14.9545C140.205 15.7045 141.198 16.7576 141.895 18.1136C142.592 19.4621 142.94 21.0379 142.94 22.8409C142.94 24.6288 142.592 26.2008 141.895 27.5568C141.198 28.9053 140.205 29.9583 138.918 30.7159C137.637 31.4659 136.115 31.8409 134.349 31.8409ZM134.372 28.0909C135.175 28.0909 135.846 27.8636 136.384 27.4091C136.921 26.947 137.327 26.3182 137.599 25.5227C137.88 24.7273 138.02 23.822 138.02 22.8068C138.02 21.7917 137.88 20.8864 137.599 20.0909C137.327 19.2955 136.921 18.6667 136.384 18.2045C135.846 17.7424 135.175 17.5114 134.372 17.5114C133.562 17.5114 132.88 17.7424 132.327 18.2045C131.781 18.6667 131.368 19.2955 131.088 20.0909C130.815 20.8864 130.679 21.7917 130.679 22.8068C130.679 23.822 130.815 24.7273 131.088 25.5227C131.368 26.3182 131.781 26.947 132.327 27.4091C132.88 27.8636 133.562 28.0909 134.372 28.0909Z" fill="#FF0909"/>
</g>
<defs>
<clipPath id="clip0_342_52">
<rect width="1440" height="1024" fill="white" transform="translate(-120 -100)"/>
</clipPath>
</defs>
</svg>
